<svg width="37" height="38" viewBox="0 0 37 38" fill="none" xmlns="http://www.w3.org/2000/svg">
    <path d="M16.284 7.036a3.305 3.305 0 0 0-3.397-2.444c-1.042.066-1.45 1.082-1.258 1.803l.944 3.523c.194.722 1.056 1.397 1.99.933a3.306 3.306 0 0 0 1.721-3.815z" fill="#F8FFED" stroke="#ADE4B5" stroke-width="2.051"/>
    <path fill-rule="evenodd" clip-rule="evenodd" d="M23.968 10.26a3.648 3.648 0 0 1 .75 7.164 3.634 3.634 0 0 1-2.68-.315 3.634 3.634 0 0 1-2.163 1.613 3.634 3.634 0 0 1-2.68-.316 3.634 3.634 0 0 1-2.163 1.614 3.634 3.634 0 0 1-2.68-.316 3.647 3.647 0 1 1-5.095-4.967 3.647 3.647 0 0 1 5.32-3.88 3.634 3.634 0 0 1 2.163-1.613 3.634 3.634 0 0 1 2.68.316 3.647 3.647 0 0 1 6.547.7z" fill="#F8FFED"/>
    <path d="m23.968 10.26-1.076.377.253.72.762.04.06-1.137zm-1.93 6.849.543-1.002-.949-.514-.565.92.971.596zm-4.843 1.297.543-1.002-.949-.514-.565.92.971.596zm-4.843 1.298.543-1.002-.949-.514-.565.92.971.596zm-5.095-4.967.621.956.64-.417-.141-.75-1.12.211zm5.32-3.88-.542 1.003.948.514.565-.92-.97-.596zM17.42 9.56l-.542 1.002.949.514.564-.92-.97-.596zm10.977 3.103a4.788 4.788 0 0 0-4.37-3.541l-.12 2.276c1.057.055 2.001.781 2.29 1.855l2.2-.59zm-3.384 5.862a4.786 4.786 0 0 0 3.384-5.862l-2.2.59a2.507 2.507 0 0 1-1.774 3.07l.59 2.202zm-3.517-.414a4.774 4.774 0 0 0 3.517.414l-.59-2.201a2.494 2.494 0 0 1-1.842-.217l-1.085 2.004zm-1.326 1.712a4.773 4.773 0 0 0 2.84-2.118l-1.943-1.193a2.494 2.494 0 0 1-1.487 1.11l.59 2.2zm-3.517-.415a4.774 4.774 0 0 0 3.517.415l-.59-2.202a2.494 2.494 0 0 1-1.842-.217l-1.085 2.004zm-1.326 1.712a4.774 4.774 0 0 0 2.84-2.117l-1.943-1.193a2.494 2.494 0 0 1-1.487 1.109l.59 2.201zm-3.517-.414a4.774 4.774 0 0 0 3.517.414l-.59-2.201a2.494 2.494 0 0 1-1.842-.217l-1.085 2.004zm-1.326 1.712a4.774 4.774 0 0 0 2.84-2.117l-1.943-1.193a2.494 2.494 0 0 1-1.487 1.109l.59 2.201zm-5.862-3.384a4.786 4.786 0 0 0 5.862 3.384l-.59-2.201a2.507 2.507 0 0 1-3.07-1.773l-2.202.59zm2.014-5.252a4.788 4.788 0 0 0-2.014 5.252l2.202-.59a2.509 2.509 0 0 1 1.054-2.751l-1.242-1.911zm1.74.744a2.507 2.507 0 0 1 1.816-2.883l-.59-2.202a4.786 4.786 0 0 0-3.465 5.508l2.24-.423zm1.816-2.883a2.494 2.494 0 0 1 1.843.217l1.085-2.004a4.773 4.773 0 0 0-3.518-.415l.59 2.202zm4.253-3.5a4.774 4.774 0 0 0-2.839 2.118l1.942 1.193a2.495 2.495 0 0 1 1.487-1.109l-.59-2.201zm3.518.415a4.774 4.774 0 0 0-3.518-.414l.59 2.201a2.494 2.494 0 0 1 1.843.217l1.085-2.004zm1.325-1.712a4.773 4.773 0 0 0-2.839 2.118l1.942 1.192a2.494 2.494 0 0 1 1.487-1.109l-.59-2.2zm5.755 3.037a4.786 4.786 0 0 0-5.755-3.037l.59 2.201a2.507 2.507 0 0 1 3.014 1.59l2.151-.754z" fill="#ADE4B5"/>
    <path fill-rule="evenodd" clip-rule="evenodd" d="M20.715 31.71a3.64 3.64 0 0 1-3.144-.615 3.648 3.648 0 0 1-4.677-1.633 3.648 3.648 0 0 1-3.769-3.436 3.647 3.647 0 1 1 3.113-6.584A3.634 3.634 0 0 1 14.4 17.83a3.635 3.635 0 0 1 2.68.316 3.634 3.634 0 0 1 2.163-1.613 3.634 3.634 0 0 1 2.68.315 3.646 3.646 0 1 1 5.988 4.145 3.648 3.648 0 0 1-1.547 4.86 3.648 3.648 0 0 1-3.234 3.753 3.64 3.64 0 0 1-2.416 2.105z" fill="#F8FFED"/>
    <path d="m17.571 31.095.687-.909-.53-.4-.61.264.453 1.045zm-4.676-1.632 1.007-.534-.335-.631-.713.026.04 1.139zm-3.77-3.437 1.138-.066-.042-.717-.665-.272-.431 1.055zm3.113-6.583-.543 1.002.949.514.565-.92-.971-.596zm4.843-1.298-.543 1.002.95.514.564-.92-.971-.596zm4.843-1.298-.543 1.002.95.514.564-.92-.971-.596zm5.987 4.145-.9-.698-.44.568.322.642 1.018-.512zm-1.546 4.861-.534-1.007-.63.335.025.713 1.139-.04zm-3.234 3.752-.13-1.132-.66.076-.26.613 1.05.444zm-6.247 2.4a4.78 4.78 0 0 0 4.127.805l-.59-2.201a2.501 2.501 0 0 1-2.163-.423l-1.374 1.819zm.47.37c.232-.063.456-.141.67-.234l-.906-2.091a2.54 2.54 0 0 1-.353.123l.59 2.201zm-5.466-2.379a4.787 4.787 0 0 0 5.467 2.378l-.59-2.201a2.508 2.508 0 0 1-2.863-1.244l-2.014 1.067zm-3.745-2.94a4.787 4.787 0 0 0 4.793 3.545l-.082-2.277a2.508 2.508 0 0 1-2.51-1.858l-2.2.59zm-.156-.964c.02.321.07.644.156.964l2.202-.59a2.532 2.532 0 0 1-.082-.506l-2.276.132zM5.88 23.888a4.78 4.78 0 0 0 2.815 3.193l.862-2.11a2.501 2.501 0 0 1-1.476-1.673l-2.201.59zm3.384-5.862a4.786 4.786 0 0 0-3.384 5.862l2.201-.59a2.507 2.507 0 0 1 1.773-3.07l-.59-2.202zm3.518.415a4.774 4.774 0 0 0-3.518-.415l.59 2.202a2.494 2.494 0 0 1 1.842.217l1.085-2.004zm1.325-1.712a4.774 4.774 0 0 0-2.84 2.117l1.943 1.193a2.495 2.495 0 0 1 1.487-1.109l-.59-2.201zm3.518.414a4.774 4.774 0 0 0-3.518-.414l.59 2.201a2.494 2.494 0 0 1 1.842.217l1.086-2.004zm1.325-1.712a4.774 4.774 0 0 0-2.84 2.118l1.943 1.192a2.494 2.494 0 0 1 1.487-1.109l-.59-2.201zm3.518.414a4.773 4.773 0 0 0-3.518-.414l.59 2.201a2.494 2.494 0 0 1 1.842.217l1.086-2.004zm1.325-1.712a4.774 4.774 0 0 0-2.84 2.118l1.943 1.193a2.495 2.495 0 0 1 1.487-1.11l-.59-2.2zm5.862 3.384a4.786 4.786 0 0 0-5.862-3.384l.59 2.202a2.507 2.507 0 0 1 3.07 1.772l2.202-.59zm-.842 4.173a4.78 4.78 0 0 0 .842-4.173l-2.202.59c.211.787.024 1.587-.441 2.187l1.801 1.396zm.465-.296a4.81 4.81 0 0 0-.347-.913l-2.037 1.023c.075.15.137.31.182.48l2.202-.59zm-2.378 5.466a4.788 4.788 0 0 0 2.378-5.466l-2.202.59a2.508 2.508 0 0 1-1.244 2.862L26.9 26.86zm-1.673-.966a2.508 2.508 0 0 1-1.857 2.51l.59 2.2a4.787 4.787 0 0 0 3.545-4.792l-2.278.082zm-1.857 2.51a2.54 2.54 0 0 1-.368.07l.26 2.264c.233-.027.466-.071.698-.133l-.59-2.202zM21.01 32.81a4.78 4.78 0 0 0 3.17-2.76l-2.1-.888a2.5 2.5 0 0 1-1.66 1.447l.59 2.201z" fill="#ADE4B5"/>
</svg>
