<svg width="72" height="72" viewBox="0 0 72 72" fill="none" xmlns="http://www.w3.org/2000/svg">
    <g clip-path="url(#a)">
        <path d="M20.542 24.707a5.512 5.512 0 0 0-5.665-4.074c-1.736.109-2.419 1.803-2.096 3.006l1.573 5.873c.323 1.204 1.76 2.33 3.32 1.556a5.512 5.512 0 0 0 2.868-6.361z" fill="#E0FFB5" stroke="#48BF91" stroke-width="3.42"/>
        <path fill-rule="evenodd" clip-rule="evenodd" d="M33.354 30.083a6.083 6.083 0 0 1 1.252 11.946 6.06 6.06 0 0 1-4.47-.526 6.06 6.06 0 0 1-3.606 2.69 6.06 6.06 0 0 1-4.469-.526 6.06 6.06 0 0 1-3.607 2.69 6.06 6.06 0 0 1-4.468-.526 6.08 6.08 0 1 1-8.496-8.282 6.08 6.08 0 0 1 8.87-6.47 6.06 6.06 0 0 1 3.608-2.69 6.06 6.06 0 0 1 4.468.527 6.08 6.08 0 0 1 10.917 1.167z" fill="#E0FFB5"/>
        <path d="m33.354 30.083-1.794.628.422 1.202 1.272.067.1-1.897zm-3.217 11.42.905-1.67-1.582-.858-.942 1.534 1.619.994zm-8.076 2.164.905-1.67-1.582-.858-.942 1.534 1.62.994zm-8.075 2.164.904-1.67-1.582-.858-.942 1.534 1.62.994zM2.932 44.22l-1.836.492 1.836-.492zm2.557-6.672 1.036 1.593 1.068-.694-.236-1.252-1.868.353zm4.403-6.995L9.4 28.718l.492 1.836zm4.469.526-.905 1.67 1.582.858.942-1.534-1.62-.994zm3.607-2.69.491 1.835-.491-1.835zm4.468.526-.905 1.67 1.583.858.941-1.534-1.619-.994zm3.607-2.69-.491-1.835.491 1.835zM40.74 34.09a7.983 7.983 0 0 0-7.286-5.906l-.2 3.795a4.183 4.183 0 0 1 3.816 3.094l3.67-.983zm-5.643 9.774a7.98 7.98 0 0 0 5.643-9.774l-3.67.983a4.18 4.18 0 0 1-2.956 5.12l.983 3.67zm-5.865-.691a7.96 7.96 0 0 0 5.865.69l-.983-3.67a4.16 4.16 0 0 1-3.072-.362l-1.81 3.342zm-2.21 2.855a7.96 7.96 0 0 0 4.734-3.531l-3.238-1.99a4.16 4.16 0 0 1-2.48 1.85l.984 3.67zm-5.866-.691a7.96 7.96 0 0 0 5.866.69l-.984-3.67a4.16 4.16 0 0 1-3.072-.362l-1.81 3.342zm-2.21 2.855a7.96 7.96 0 0 0 4.734-3.532l-3.238-1.988a4.16 4.16 0 0 1-2.48 1.849l.984 3.67zm-5.865-.691a7.96 7.96 0 0 0 5.865.69l-.984-3.67a4.16 4.16 0 0 1-3.072-.362l-1.81 3.342zm-2.21 2.854a7.96 7.96 0 0 0 4.734-3.53l-3.239-1.99a4.159 4.159 0 0 1-2.48 1.85l.984 3.67zm-9.775-5.643a7.98 7.98 0 0 0 9.774 5.643l-.983-3.67a4.18 4.18 0 0 1-5.12-2.956l-3.67.983zm3.358-8.757a7.983 7.983 0 0 0-3.358 8.757l3.671-.983a4.183 4.183 0 0 1 1.758-4.588l-2.071-3.186zm2.903 1.24a4.18 4.18 0 0 1 3.027-4.807l-.984-3.67A7.981 7.981 0 0 0 3.622 37.9l3.735-.705zm3.027-4.807a4.16 4.16 0 0 1 3.072.362l1.81-3.342a7.96 7.96 0 0 0-5.866-.69l.984 3.67zm7.092-5.835a7.96 7.96 0 0 0-4.734 3.531l3.238 1.99a4.16 4.16 0 0 1 2.48-1.85l-.984-3.67zm5.865.691a7.96 7.96 0 0 0-5.865-.69l.983 3.67a4.159 4.159 0 0 1 3.072.362l1.81-3.342zm2.21-2.855a7.96 7.96 0 0 0-4.734 3.532l3.238 1.988a4.16 4.16 0 0 1 2.48-1.849l-.983-3.67zm9.596 5.064a7.98 7.98 0 0 0-9.595-5.064l.983 3.671a4.18 4.18 0 0 1 5.025 2.65l3.587-1.256z" fill="#48BF91"/>
        <path fill-rule="evenodd" clip-rule="evenodd" d="M41 42.676a6.071 6.071 0 0 1-1.07 5.303 6.083 6.083 0 0 1-2.579 8.105 6.083 6.083 0 0 1-5.391 6.257 6.07 6.07 0 0 1-4.029 3.509 6.07 6.07 0 0 1-5.243-1.024 6.083 6.083 0 0 1-7.798-2.723 6.083 6.083 0 0 1-6.286-5.73 6.08 6.08 0 1 1 5.19-10.978 6.06 6.06 0 0 1 3.608-2.69 6.06 6.06 0 0 1 4.468.526 6.06 6.06 0 0 1 3.607-2.69 6.06 6.06 0 0 1 4.47.526A6.08 6.08 0 0 1 41 42.677z" fill="#9DE89F"/>
        <path d="m39.93 47.979-1.502-1.164-.733.946.537 1.07 1.698-.852zm-2.578 8.105-.89-1.678-1.052.557.043 1.19 1.898-.069zm-5.392 6.257-.217-1.888-1.102.127-.431 1.021 1.75.74zm-9.272 2.485 1.146-1.516-.885-.669-1.017.441.756 1.744zm-7.798-2.723 1.68-.89-.558-1.052-1.19.043.068 1.899zm-6.286-5.73 1.897-.11-.07-1.196-1.108-.453-.719 1.759zm5.19-10.978-.904 1.67 1.582.858.942-1.534-1.62-.994zm8.076-2.164-.904 1.67 1.582.858.942-1.534-1.62-.994zm8.076-2.164-.905 1.67 1.582.858.942-1.533-1.619-.995zm11.486 8.076a7.971 7.971 0 0 0 1.404-6.958l-3.671.983a4.17 4.17 0 0 1-.737 3.647l3.004 2.328zm.775-.495a8 8 0 0 0-.579-1.522l-3.396 1.706c.125.249.228.516.304.8l3.67-.984zm-3.965 9.115a7.983 7.983 0 0 0 3.965-9.115l-3.671.984a4.183 4.183 0 0 1-2.075 4.774l1.78 3.357zm-2.79-1.61a4.183 4.183 0 0 1-3.096 4.184l.983 3.67a7.983 7.983 0 0 0 5.911-7.991l-3.797.137zm-3.096 4.184a4.23 4.23 0 0 1-.613.116l.433 3.776a8.027 8.027 0 0 0 1.163-.222l-.983-3.67zm-3.933 7.348a7.97 7.97 0 0 0 5.287-4.604l-3.5-1.48a4.17 4.17 0 0 1-2.77 2.413l.983 3.671zm-6.88-1.344a7.97 7.97 0 0 0 6.88 1.344l-.983-3.67a4.17 4.17 0 0 1-3.606-.706l-2.291 3.032zm.784.617c.386-.103.76-.234 1.117-.39l-1.512-3.486c-.187.081-.384.15-.589.205l.984 3.671zm-9.115-3.965a7.983 7.983 0 0 0 9.115 3.965l-.984-3.67a4.183 4.183 0 0 1-4.774-2.075l-3.357 1.78zM6.967 58.09a7.983 7.983 0 0 0 7.992 5.912l-.137-3.798a4.182 4.182 0 0 1-4.184-3.097l-3.67.983zm-.26-1.607c.032.535.117 1.073.26 1.608l3.671-.984a4.21 4.21 0 0 1-.137-.845l-3.794.221zm-3.516-3.676a7.971 7.971 0 0 0 4.695 5.325l1.437-3.518a4.17 4.17 0 0 1-2.461-2.79l-3.67.983zm5.643-9.774a7.98 7.98 0 0 0-5.643 9.774l3.671-.983a4.18 4.18 0 0 1 2.956-5.12l-.984-3.67zm5.866.691a7.96 7.96 0 0 0-5.866-.69l.984 3.67a4.16 4.16 0 0 1 3.072.362l1.81-3.342zm2.21-2.855a7.96 7.96 0 0 0-4.734 3.531l3.238 1.99a4.16 4.16 0 0 1 2.48-1.85l-.984-3.67zm5.866.691a7.96 7.96 0 0 0-5.866-.69l.984 3.67a4.16 4.16 0 0 1 3.072.362l1.81-3.342zm2.21-2.855a7.96 7.96 0 0 0-4.735 3.532l3.239 1.988a4.159 4.159 0 0 1 2.48-1.849l-.984-3.67zm5.865.691a7.96 7.96 0 0 0-5.865-.69l.983 3.67a4.16 4.16 0 0 1 3.072.362l1.81-3.342zm2.21-2.854a7.96 7.96 0 0 0-4.734 3.53l3.238 1.99a4.16 4.16 0 0 1 2.48-1.85l-.984-3.67zm9.775 5.643a7.98 7.98 0 0 0-9.775-5.643l.984 3.67a4.18 4.18 0 0 1 5.12 2.956l3.67-.983z" fill="#48BF91"/>
        <path d="M22.936 43.842c0 2.572-.584 4.825-1.452 6.381-.896 1.607-1.892 2.17-2.643 2.17-.75 0-1.747-.563-2.643-2.17-.868-1.556-1.452-3.81-1.452-6.38 0-2.572.584-4.825 1.452-6.381.896-1.607 1.892-2.17 2.643-2.17.751 0 1.747.563 2.643 2.17.868 1.556 1.452 3.809 1.452 6.38z" fill="#fff" stroke="#48BF91" stroke-width="3.04"/>
        <ellipse cx="20.547" cy="41.898" rx="3.332" ry="4.736" fill="#48BF91"/>
        <path d="M32.506 43.842c0 2.57-.59 4.82-1.467 6.375-.903 1.602-1.913 2.176-2.688 2.176-.775 0-1.786-.574-2.688-2.176-.877-1.555-1.467-3.806-1.467-6.375s.59-4.82 1.466-6.374c.903-1.603 1.914-2.176 2.689-2.176.775 0 1.785.573 2.688 2.176.877 1.555 1.467 3.805 1.467 6.374z" fill="#fff" stroke="#48BF91" stroke-width="3.04"/>
        <ellipse cx="29.896" cy="41.898" rx="3.332" ry="4.736" fill="#48BF91"/>
        <ellipse cx="30.675" cy="40.353" rx=".399" ry=".798" fill="#fff"/>
        <ellipse cx="21.103" cy="40.353" rx=".399" ry=".798" fill="#fff"/>
        <path d="M54.563 0a13.438 13.438 0 1 0 0 26.875 13.438 13.438 0 0 0 0-26.875zm0 21.5a1.343 1.343 0 1 1 0-2.686 1.343 1.343 0 0 1 0 2.686zm1.343-6.934v1.559a1.344 1.344 0 0 1-2.687 0v-2.688a1.344 1.344 0 0 1 1.343-1.343 2.016 2.016 0 1 0-2.015-2.016 1.344 1.344 0 0 1-2.688 0 4.703 4.703 0 1 1 6.047 4.488z" fill="#9DE89F"/>
        <path d="m46.016 29.489.492-7.205 5.993 4.029-6.485 3.176z" fill="#9DE89F"/>
    </g>
    <defs>
        <clipPath id="a">
            <path fill="#fff" d="M0 0h72v72H0z"/>
        </clipPath>
    </defs>
</svg>
