<svg width="16" height="16" fill="none" xmlns="http://www.w3.org/2000/svg">
    <path d="M1 3.625a.875.875 0 0 1 .875-.875h12.25a.875.875 0 0 1 0 1.75v8.75a2.625 2.625 0 0 1-2.625 2.625h-7a2.625 2.625 0 0 1-2.625-2.625V4.5A.875.875 0 0 1 1 3.625zm2.625.875v8.75a.875.875 0 0 0 .875.875h7a.875.875 0 0 0 .875-.875V4.5h-8.75z" fill="#AAA"/>
    <path d="M7.125 1.875a.875.875 0 0 0-.875.875v.875a.875.875 0 1 1-1.75 0V2.75A2.625 2.625 0 0 1 7.125.125h1.75A2.625 2.625 0 0 1 11.5 2.75v.875a.875.875 0 0 1-1.75 0V2.75a.875.875 0 0 0-.875-.875h-1.75zM6.25 6.25a.875.875 0 0 1 .875.875V11.5a.875.875 0 1 1-1.75 0V7.125a.875.875 0 0 1 .875-.875zm3.5 0a.875.875 0 0 1 .875.875V11.5a.875.875 0 1 1-1.75 0V7.125a.875.875 0 0 1 .875-.875z" fill="#AAA"/>
</svg>
