<svg width="36" height="36" viewBox="0 0 36 36" fill="none" xmlns="http://www.w3.org/2000/svg">
    <circle cx="18" cy="18" r="13" fill="#fff" stroke="#AAA"/>
    <path d="m23.807 13.753-1.56-1.56a.664.664 0 0 0-.94 0l-2.08 2.08-.82-.806a.67.67 0 0 0-1.085.215.663.663 0 0 0 .145.725l.48.48-5.847 5.846a.327.327 0 0 0-.1.24v2.694a.33.33 0 0 0 .333.333h2.694a.313.313 0 0 0 .233-.1l5.847-5.847.48.48a.663.663 0 1 0 .94-.94l-.814-.813 2.08-2.08a.66.66 0 0 0 .014-.947zm-9.194 8.914-1.28-1.28 5.374-5.374 1.28 1.28-5.374 5.374z" fill="#323232"/>
</svg>
