<svg width="16" height="16" fill="none" xmlns="http://www.w3.org/2000/svg">
    <path d="M5.501 5a.75.75 0 1 1-1.5 0 .75.75 0 0 1 1.5 0zM4.751 8.75a.75.75 0 1 0 0-1.5.75.75 0 0 0 0 1.5zM5.501 11a.75.75 0 1 1-1.5 0 .75.75 0 0 1 1.5 0zM7.5 4.75a.5.5 0 1 0 0 1h4a.5.5 0 1 0 0-1h-4zM7 8.25a.5.5 0 0 1 .5-.5h4a.5.5 0 1 1 0 1h-4a.5.5 0 0 1-.5-.5zM7.5 10.75a.5.5 0 0 0 0 1h4a.5.5 0 1 0 0-1h-4z" fill="#A4A29D" stroke="#A4A29D" stroke-width=".5"/>
    <path d="M1 3a2 2 0 0 1 2-2h10a2 2 0 0 1 2 2v10a2 2 0 0 1-2 2H3a2 2 0 0 1-2-2V3zm2-1a1 1 0 0 0-1 1v10a1 1 0 0 0 1 1h10a1 1 0 0 0 1-1V3a1 1 0 0 0-1-1H3z" fill="#A4A29D" stroke="#A4A29D" stroke-width=".5"/>
</svg>
