<svg width="16" height="16" viewBox="0 0 16 16" fill="none" xmlns="http://www.w3.org/2000/svg">
    <path fill-rule="evenodd" clip-rule="evenodd" d="M7.111 1.778a.889.889 0 0 0-.889.889h3.556a.889.889 0 0 0-.89-.89H7.112zm0-1.778a2.667 2.667 0 0 0-2.667 2.667H.89a.889.889 0 1 0 0 1.777h.889v8.89A2.667 2.667 0 0 0 4.444 16h7.112a2.667 2.667 0 0 0 2.666-2.667V4.444h.89a.889.889 0 1 0 0-1.777h-3.556A2.667 2.667 0 0 0 8.889 0H7.11zm0 7.111a.889.889 0 1 0-1.778 0v4.445a.889.889 0 0 0 1.778 0V7.11zm3.556 0a.889.889 0 0 0-1.778 0v4.445a.889.889 0 0 0 1.778 0V7.11z" fill="#48BF91"/>
</svg>
