<svg width="36" height="36" viewBox="0 0 36 36" fill="none" xmlns="http://www.w3.org/2000/svg">
    <path d="m5.254 9.332-2.406 4.332 1.586 1.631 9.19-2.463.818-1.912-5.13-2.676-4.058 1.088zM17.743 11.73l8.68-2.327.614-2.22-4.305-2.535-3.549.951-3.104 4.883 1.664 1.247zM11.285 7.384l-.895-3.34 2.23-3.37 3.629 1.81.875 3.266-2.251 3.403-.008.012-3.58-1.78zM5.466 21.465c-.34-1.27-.676-3.225-.661-4.479l22.2-5.948c.639 1.078 1.325 2.939 1.665 4.21 1.773 6.616-1.495 13.395-7.45 16.26l-1.172.315c-6.59.495-12.809-3.742-14.582-10.358z" fill="#D6D6D6"/>
</svg>
