<svg width="32" height="32" viewBox="0 0 32 32" fill="none" xmlns="http://www.w3.org/2000/svg">
    <g clip-path="url(#a)">
        <path d="M14.942 3.58a3.414 3.414 0 0 0-3.509-2.524c-1.076.068-1.498 1.117-1.299 1.863l.975 3.638c.2.746 1.09 1.443 2.056.963a3.414 3.414 0 0 0 1.777-3.94z" fill="#E0FFB5" stroke="#0BAA78" stroke-width="2.119"/>
        <path fill-rule="evenodd" clip-rule="evenodd" d="M11.114 7.528a3.754 3.754 0 0 1 2.234-1.666 3.754 3.754 0 0 1 2.768.326 3.767 3.767 0 0 1 6.763.723 3.768 3.768 0 0 1 .776 7.4c-.97.26-1.951.117-2.769-.326a3.754 3.754 0 0 1-2.234 1.666c-.97.26-1.951.117-2.769-.326a3.754 3.754 0 0 1-2.234 1.667c-.969.26-1.95.117-2.768-.326a3.767 3.767 0 1 1-5.263-5.13 3.767 3.767 0 0 1 5.496-4.008z" fill="#E0FFB5"/>
        <path d="m13.348 5.862.305 1.137-.305-1.137zm-2.234 1.666-.561 1.035.98.53.584-.949-1.003-.616zm5.002-1.34-.56 1.035.98.53.583-.95-1.003-.615zm2.235-1.667.304 1.137-.304-1.137zm4.528 2.39-1.11.388.26.745.788.042.062-1.176zm-1.993 7.074.56-1.035-.98-.531-.583.95 1.003.616zm-5.002 1.34.56-1.035-.98-.53-.584.95 1.003.615zm-5.003 1.34.56-1.034-.98-.531-.583.95 1.003.616zm-6.848-.996 1.137-.305-1.137.305zm1.585-4.134.641.987.662-.43-.146-.775-1.157.218zm2.727-4.333.305 1.137-.305-1.137zm4.698-2.477a4.93 4.93 0 0 0-2.932 2.187l2.006 1.232c.335-.546.869-.967 1.536-1.145l-.61-2.274zm3.634.428a4.93 4.93 0 0 0-3.634-.428l.61 2.274a2.577 2.577 0 0 1 1.903.224l1.12-2.07zm1.369-1.769a4.93 4.93 0 0 0-2.933 2.188l2.006 1.232c.335-.546.87-.967 1.536-1.146l-.61-2.274zm5.944 3.137a4.944 4.944 0 0 0-5.944-3.137l.61 2.274A2.59 2.59 0 0 1 21.767 7.3l2.222-.778zm3.465 2.872a4.945 4.945 0 0 0-4.514-3.658l-.124 2.35a2.591 2.591 0 0 1 2.364 1.917l2.274-.609zm-3.496 6.055a4.944 4.944 0 0 0 3.496-6.055l-2.274.61a2.59 2.59 0 0 1-1.831 3.171l.61 2.274zm-3.633-.428a4.931 4.931 0 0 0 3.633.428l-.609-2.274a2.577 2.577 0 0 1-1.903-.224l-1.121 2.07zm-1.37 1.768a4.93 4.93 0 0 0 2.933-2.187l-2.006-1.232c-.335.546-.87.967-1.536 1.146l.61 2.273zm-3.633-.428a4.93 4.93 0 0 0 3.633.428l-.609-2.274a2.577 2.577 0 0 1-1.903-.224l-1.121 2.07zm-1.37 1.769a4.93 4.93 0 0 0 2.934-2.188L14.88 14.71c-.335.546-.869.967-1.536 1.146l.61 2.274zM10.32 17.7a4.93 4.93 0 0 0 3.634.428l-.61-2.274a2.577 2.577 0 0 1-1.902-.224L10.32 17.7zm-1.369 1.768a4.93 4.93 0 0 0 2.933-2.187L9.878 16.05c-.335.546-.87.967-1.536 1.145l.61 2.274zm-6.055-3.495a4.944 4.944 0 0 0 6.055 3.495l-.609-2.274a2.59 2.59 0 0 1-3.172-1.83l-2.274.609zm2.08-5.426a4.945 4.945 0 0 0-2.08 5.426l2.274-.61a2.591 2.591 0 0 1 1.09-2.842l-1.283-1.974zm1.799.769A2.59 2.59 0 0 1 8.65 8.339l-.61-2.274a4.944 4.944 0 0 0-3.579 5.689l2.314-.437zM8.65 8.339a2.576 2.576 0 0 1 1.903.224l1.121-2.07a4.93 4.93 0 0 0-3.633-.428L8.65 8.34z" fill="#0BAA78"/>
        <path fill-rule="evenodd" clip-rule="evenodd" d="M27.615 14.712a3.76 3.76 0 0 1-.662 3.284 3.768 3.768 0 0 1-1.597 5.021 3.768 3.768 0 0 1-3.34 3.877 3.76 3.76 0 0 1-2.496 2.173 3.76 3.76 0 0 1-3.248-.634 3.768 3.768 0 0 1-4.83-1.687 3.768 3.768 0 0 1-3.895-3.55 3.767 3.767 0 1 1 3.215-6.8 3.754 3.754 0 0 1 2.235-1.667 3.754 3.754 0 0 1 2.768.326A3.754 3.754 0 0 1 18 13.39a3.753 3.753 0 0 1 2.768.326 3.767 3.767 0 0 1 6.848.997z" fill="#9DE89F"/>
        <path d="m26.953 17.996-.93-.72-.455.586.333.663 1.052-.529zm-1.598 5.022-.551-1.04-.652.345.027.737 1.176-.042zm-3.34 3.876-.134-1.17-.683.078-.267.633 1.084.459zm-5.743 1.539.71-.94-.549-.414-.63.274.469 1.08zm-4.83-1.687 1.04-.551-.346-.652-.737.027.042 1.176zm-3.895-3.55 1.175-.068-.043-.74-.687-.282-.445 1.09zm3.216-6.8-.56 1.035.98.53.583-.95-1.003-.615zm5.002-1.34-.56 1.034.98.531.583-.95-1.003-.616zm5.003-1.341-.56 1.035.98.53.583-.95-1.003-.615zm7.115 5.002a4.937 4.937 0 0 0 .87-4.31l-2.275.61a2.584 2.584 0 0 1-.456 2.258l1.861 1.442zm.48-.306a4.962 4.962 0 0 0-.358-.943L25.9 18.525c.078.154.141.32.188.495l2.274-.609zm-2.456 5.647a4.945 4.945 0 0 0 2.456-5.647l-2.274.61a2.59 2.59 0 0 1-1.285 2.957l1.103 2.08zm-1.728-.998a2.59 2.59 0 0 1-1.919 2.592l.61 2.274a4.945 4.945 0 0 0 3.662-4.95l-2.353.084zm-1.919 2.592a2.612 2.612 0 0 1-.38.072l.27 2.339a4.97 4.97 0 0 0 .72-.137l-.61-2.274zm-2.436 4.552a4.938 4.938 0 0 0 3.275-2.852l-2.168-.917a2.583 2.583 0 0 1-1.716 1.495l.61 2.274zm-4.262-.832a4.938 4.938 0 0 0 4.262.832l-.609-2.274a2.583 2.583 0 0 1-2.234-.437l-1.419 1.879zm.486.382c.24-.065.47-.145.692-.242l-.937-2.16c-.116.051-.237.094-.364.128l.609 2.274zM10.4 27.297a4.945 4.945 0 0 0 5.647 2.457l-.61-2.274a2.591 2.591 0 0 1-2.957-1.285l-2.08 1.102zM6.533 24.26a4.945 4.945 0 0 0 4.95 3.662L11.4 25.57a2.591 2.591 0 0 1-2.592-1.919l-2.274.61zm-.16-.995c.018.331.071.664.16.995l2.274-.609a2.607 2.607 0 0 1-.085-.523l-2.35.137zm-2.179-2.277a4.938 4.938 0 0 0 2.908 3.298l.89-2.18a2.583 2.583 0 0 1-1.524-1.728l-2.274.61zm3.496-6.055a4.944 4.944 0 0 0-3.496 6.055l2.274-.61a2.59 2.59 0 0 1 1.831-3.171l-.61-2.274zm3.633.428a4.93 4.93 0 0 0-3.633-.428l.61 2.274a2.577 2.577 0 0 1 1.902.224l1.121-2.07zm1.37-1.769A4.93 4.93 0 0 0 9.76 15.78l2.006 1.232c.335-.546.869-.967 1.536-1.146l-.61-2.274zm3.633.428a4.93 4.93 0 0 0-3.634-.428l.61 2.274a2.577 2.577 0 0 1 1.903.224l1.12-2.07zm1.369-1.768a4.93 4.93 0 0 0-2.933 2.187l2.006 1.232c.335-.545.87-.966 1.536-1.145l-.609-2.274zm3.633.428a4.93 4.93 0 0 0-3.633-.428l.61 2.274a2.577 2.577 0 0 1 1.902.224l1.121-2.07zm1.37-1.768a4.93 4.93 0 0 0-2.933 2.187l2.006 1.232c.335-.546.87-.967 1.536-1.146l-.61-2.274zm6.054 3.495a4.944 4.944 0 0 0-6.054-3.495l.609 2.273a2.59 2.59 0 0 1 3.171 1.832l2.274-.61z" fill="#0BAA78"/>
        <path d="M16.425 15.434c0 1.593-.362 2.989-.9 3.953-.554.995-1.171 1.344-1.636 1.344-.466 0-1.083-.349-1.638-1.344-.537-.964-.9-2.36-.9-3.953s.363-2.989.9-3.953c.555-.995 1.172-1.344 1.638-1.344.465 0 1.082.349 1.637 1.344.537.964.9 2.36.9 3.953z" fill="#fff" stroke="#0BAA78" stroke-width="1.883"/>
        <ellipse cx="14.945" cy="14.23" rx="2.064" ry="2.934" fill="#0BAA78"/>
        <path d="M22.353 15.434c0 1.591-.365 2.986-.908 3.949-.56.993-1.185 1.348-1.666 1.348-.48 0-1.105-.355-1.665-1.348-.543-.963-.908-2.358-.908-3.949 0-1.591.365-2.986.908-3.949.56-.992 1.185-1.348 1.665-1.348s1.107.355 1.666 1.348c.543.963.908 2.358.908 3.949z" fill="#fff" stroke="#0BAA78" stroke-width="1.883"/>
        <ellipse cx="20.737" cy="14.23" rx="2.064" ry="2.934" fill="#0BAA78"/>
        <ellipse cx="21.219" cy="13.272" rx=".247" ry=".494" fill="#fff"/>
        <ellipse cx="15.29" cy="13.272" rx=".247" ry=".494" fill="#fff"/>
    </g>
    <defs>
        <clipPath id="a">
            <path fill="#fff" d="M0 0h32v32H0z"/>
        </clipPath>
    </defs>
</svg>
