<svg width="24" height="24" viewBox="0 0 24 24" fill="none" xmlns="http://www.w3.org/2000/svg">
    <path d="m19.581 15.386-1.602-1.629V9.744a6.216 6.216 0 0 0-1.443-4.077 6.087 6.087 0 0 0-3.735-2.115 5.932 5.932 0 0 0-2.521.208c-.817.25-1.57.673-2.212 1.242a6.061 6.061 0 0 0-1.51 2.053 6.124 6.124 0 0 0-.537 2.5v4.202l-1.602 1.63a1.482 1.482 0 0 0-.307 1.6c.11.269.296.498.534.66.238.161.518.248.805.25h2.99v.306c.041.914.44 1.773 1.106 2.39a3.394 3.394 0 0 0 2.453.904 3.394 3.394 0 0 0 2.453-.903 3.472 3.472 0 0 0 1.106-2.391v-.306h2.99c.287-.002.567-.089.805-.25a1.492 1.492 0 0 0 .227-2.26zm-5.801 2.817c-.05.433-.262.83-.594 1.108a1.66 1.66 0 0 1-1.186.386 1.66 1.66 0 0 1-1.186-.386 1.697 1.697 0 0 1-.594-1.108v-.306h3.56v.306z" fill="#48BF91"/>
</svg>
