<svg width="16" height="16" viewBox="0 0 16 16" fill="none" xmlns="http://www.w3.org/2000/svg">
    <path fill-rule="evenodd" clip-rule="evenodd" d="M2.677 9.52a1.52 1.52 0 1 1 0-3.04 1.52 1.52 0 0 1 0 3.04z" fill="#A4A29D"/>
    <path d="M1.602 13.796a1.52 1.52 0 1 0 2.15-2.15 1.52 1.52 0 0 0-2.15 2.15zM1.602 4.356a1.52 1.52 0 1 0 2.15-2.15 1.52 1.52 0 0 0-2.15 2.15z" fill="#A4A29D"/>
    <path d="M14.083 2.52H6.48a.76.76 0 1 0 0 1.521h7.604a.76.76 0 1 0 0-1.52zM14.083 7.24H6.48a.76.76 0 0 0 0 1.52h7.604a.76.76 0 1 0 0-1.52zM14.083 11.96H6.48a.76.76 0 1 0 0 1.521h7.604a.76.76 0 0 0 0-1.52z" fill="#A4A29D" stroke="#A4A29D" stroke-width=".4"/>
</svg>
