<svg width="72" height="72" viewBox="0 0 72 72" fill="none" xmlns="http://www.w3.org/2000/svg">
    <g clip-path="url(#a)">
        <path d="M20.542 24.707a5.512 5.512 0 0 0-5.665-4.074c-1.737.109-2.419 1.803-2.097 3.006l1.574 5.873c.323 1.204 1.76 2.33 3.32 1.556a5.512 5.512 0 0 0 2.868-6.361z" fill="#E0FFB5" stroke="#48BF91" stroke-width="3.42"/>
        <path fill-rule="evenodd" clip-rule="evenodd" d="M26.043 26.226a6.06 6.06 0 0 0-3.607 2.69 6.06 6.06 0 0 0-4.468-.526 6.06 6.06 0 0 0-3.607 2.69 6.08 6.08 0 0 0-8.871 6.47 6.08 6.08 0 1 0 8.496 8.282 6.06 6.06 0 0 0 4.468.525 6.06 6.06 0 0 0 3.607-2.69 6.06 6.06 0 0 0 4.469.526 6.06 6.06 0 0 0 3.607-2.69 6.08 6.08 0 1 0 3.217-11.42 6.08 6.08 0 0 0-7.31-3.857z" fill="#E0FFB5"/>
        <path d="m22.436 28.916-.905 1.67 1.583.858.941-1.534-1.619-.994zm3.607-2.69.492 1.835-.492-1.835zm-8.075 2.164.491 1.835-.491-1.835zm-3.607 2.69-.905 1.67 1.582.858.942-1.534-1.62-.994zm-4.469-.526L9.4 28.718l.492 1.836zm-4.403 6.995 1.036 1.593 1.068-.694-.236-1.252-1.868.353zm-2.557 6.673-1.836.491 1.836-.491zm11.054 1.61.904-1.672-1.582-.857-.941 1.534 1.619.994zm8.075-2.165.905-1.67-1.582-.858-.942 1.534 1.62.994zm8.076-2.164.905-1.67-1.582-.858-.942 1.534 1.619.994zm3.217-11.42-1.794.628.422 1.202 1.272.067.1-1.897zm-9.299-.172a4.16 4.16 0 0 1 2.48-1.85l-.983-3.67a7.96 7.96 0 0 0-4.735 3.53l3.238 1.99zm-5.596.314a4.16 4.16 0 0 1 3.072.362l1.81-3.342a7.96 7.96 0 0 0-5.865-.69l.983 3.67zm-2.48 1.85a4.16 4.16 0 0 1 2.48-1.85l-.983-3.67a7.96 7.96 0 0 0-4.734 3.53l3.238 1.99zm-5.595.314a4.16 4.16 0 0 1 3.072.362l1.81-3.342a7.96 7.96 0 0 0-5.866-.69l.984 3.67zm-3.027 4.807a4.18 4.18 0 0 1 3.027-4.807L9.4 28.72a7.981 7.981 0 0 0-5.778 9.183l3.735-.706zm-2.59 6.534a4.183 4.183 0 0 1 1.758-4.588l-2.071-3.186a7.983 7.983 0 0 0-3.358 8.757l3.671-.983zm5.12 2.956a4.18 4.18 0 0 1-5.12-2.956l-3.67.983a7.98 7.98 0 0 0 9.773 5.643l-.983-3.67zm2.48-1.85a4.16 4.16 0 0 1-2.48 1.85l.983 3.67a7.96 7.96 0 0 0 4.735-3.53l-3.239-1.99zm5.595-.314a4.16 4.16 0 0 1-3.072-.362l-1.81 3.342a7.96 7.96 0 0 0 5.866.69l-.984-3.67zm2.48-1.85a4.16 4.16 0 0 1-2.48 1.85l.984 3.67a7.96 7.96 0 0 0 4.734-3.53l-3.238-1.99zm5.596-.314a4.16 4.16 0 0 1-3.072-.362l-1.81 3.342a7.96 7.96 0 0 0 5.866.69l-.984-3.67zm2.48-1.85a4.16 4.16 0 0 1-2.48 1.85l.984 3.67a7.96 7.96 0 0 0 4.734-3.53l-3.238-1.99zm5.596-.314a4.16 4.16 0 0 1-3.072-.361l-1.81 3.341a7.96 7.96 0 0 0 5.865.69l-.983-3.67zm2.956-5.12a4.18 4.18 0 0 1-2.956 5.12l.983 3.67a7.98 7.98 0 0 0 5.643-9.773l-3.67.983zm-3.816-3.094a4.183 4.183 0 0 1 3.816 3.094l3.67-.983a7.983 7.983 0 0 0-7.286-5.906l-.2 3.795zm-6.719-3.919a4.18 4.18 0 0 1 5.025 2.65l3.587-1.256a7.981 7.981 0 0 0-9.595-5.064l.983 3.67z" fill="#48BF91"/>
        <path fill-rule="evenodd" clip-rule="evenodd" d="M31.96 62.341a6.07 6.07 0 0 1-4.029 3.509 6.07 6.07 0 0 1-5.243-1.024 6.083 6.083 0 0 1-7.798-2.723 6.083 6.083 0 0 1-6.286-5.73 6.08 6.08 0 1 1 5.19-10.978 6.06 6.06 0 0 1 3.607-2.69 6.06 6.06 0 0 1 4.47.526 6.06 6.06 0 0 1 3.606-2.69 6.06 6.06 0 0 1 4.469.526 6.08 6.08 0 1 1 9.984 6.912 6.083 6.083 0 0 1-2.579 8.105 6.083 6.083 0 0 1-5.392 6.257z" fill="#9DE89F"/>
        <path d="m31.96 62.341-.217-1.887-1.102.126-.432 1.021 1.75.74zm-9.272 2.485 1.146-1.516-.885-.669-1.017.441.756 1.744zm-7.798-2.723 1.679-.89-.558-1.052-1.19.043.07 1.899zm-6.286-5.73 1.897-.11-.07-1.196-1.108-.453-.719 1.759zm5.19-10.978-.904 1.67 1.582.858.942-1.534-1.62-.994zm8.076-2.164-.905 1.67 1.583.858.941-1.533-1.619-.995zm8.076-2.164-.905 1.671 1.582.857.942-1.533-1.62-.995zm9.984 6.912-1.502-1.164-.733.947.537 1.07 1.698-.853zm-2.579 8.106-.89-1.68-1.052.558.043 1.19 1.9-.068zM30.21 61.6a4.17 4.17 0 0 1-2.77 2.414l.984 3.67a7.97 7.97 0 0 0 5.286-4.604l-3.5-1.48zm-2.77 2.414a4.17 4.17 0 0 1-3.605-.705l-2.292 3.032a7.97 7.97 0 0 0 6.88 1.343l-.983-3.67zm-5.507-.933c-.188.082-.384.15-.59.206l.985 3.67a8.02 8.02 0 0 0 1.117-.39l-1.512-3.486zm-.59.206a4.183 4.183 0 0 1-4.773-2.075l-3.358 1.78a7.983 7.983 0 0 0 9.115 3.965l-.983-3.67zm-6.52-3.084a4.183 4.183 0 0 1-4.184-3.097l-3.67.984a7.983 7.983 0 0 0 7.99 5.91l-.137-3.797zm-4.184-3.097a4.203 4.203 0 0 1-.137-.845l-3.794.221c.031.535.117 1.073.26 1.608l3.67-.984zm-1.315-2.493a4.17 4.17 0 0 1-2.461-2.79l-3.671.983a7.97 7.97 0 0 0 4.694 5.325l1.438-3.518zm-2.461-2.79a4.18 4.18 0 0 1 2.956-5.12l-.984-3.67a7.98 7.98 0 0 0-5.643 9.773l3.67-.983zm2.956-5.12a4.16 4.16 0 0 1 3.072.362l1.81-3.342a7.96 7.96 0 0 0-5.866-.69l.984 3.67zm5.596-.315a4.16 4.16 0 0 1 2.48-1.849l-.984-3.67a7.96 7.96 0 0 0-4.735 3.53l3.239 1.99zm2.48-1.849a4.16 4.16 0 0 1 3.071.362l1.81-3.342a7.96 7.96 0 0 0-5.865-.69l.983 3.67zm5.595-.314a4.16 4.16 0 0 1 2.48-1.85l-.984-3.67a7.96 7.96 0 0 0-4.734 3.53l3.238 1.99zm2.48-1.85a4.16 4.16 0 0 1 3.072.362l1.81-3.341a7.96 7.96 0 0 0-5.866-.691l.984 3.67zm5.596-.314a4.159 4.159 0 0 1 2.48-1.85l-.984-3.67a7.96 7.96 0 0 0-4.734 3.53l3.238 1.99zm2.48-1.85a4.18 4.18 0 0 1 5.12 2.956l3.67-.983a7.98 7.98 0 0 0-9.774-5.643l.984 3.67zm5.12 2.956a4.17 4.17 0 0 1-.737 3.647l3.004 2.328a7.971 7.971 0 0 0 1.403-6.958l-3.67.983zm-.933 5.664c.125.25.228.516.304.8l3.67-.984a8.008 8.008 0 0 0-.578-1.522l-3.396 1.706zm.304.8a4.183 4.183 0 0 1-2.075 4.774l1.78 3.357a7.983 7.983 0 0 0 3.965-9.115l-3.67.984zm-3.084 6.521a4.183 4.183 0 0 1-3.097 4.184l.984 3.67a7.983 7.983 0 0 0 5.911-7.991l-3.798.137zm-3.097 4.184c-.205.055-.41.093-.612.117l.433 3.775a8.029 8.029 0 0 0 1.163-.221l-.984-3.671z" fill="#48BF91"/>
        <path d="M22.937 43.842c0 2.572-.585 4.825-1.453 6.381-.895 1.607-1.892 2.17-2.643 2.17-.75 0-1.747-.563-2.643-2.17-.867-1.556-1.452-3.81-1.452-6.38 0-2.572.585-4.825 1.452-6.382.896-1.606 1.893-2.17 2.643-2.17.751 0 1.748.564 2.643 2.17.868 1.557 1.453 3.81 1.453 6.381z" fill="#fff" stroke="#48BF91" stroke-width="3.04"/>
        <ellipse cx="20.547" cy="41.898" rx="3.332" ry="4.736" fill="#48BF91"/>
        <path d="M32.506 43.842c0 2.57-.59 4.82-1.466 6.375-.903 1.602-1.913 2.176-2.689 2.176-.775 0-1.785-.574-2.688-2.176-.877-1.555-1.467-3.806-1.467-6.375s.59-4.82 1.467-6.374c.903-1.603 1.913-2.176 2.688-2.176.776 0 1.786.573 2.689 2.175.876 1.556 1.466 3.806 1.466 6.375z" fill="#fff" stroke="#48BF91" stroke-width="3.04"/>
        <ellipse cx="29.896" cy="41.898" rx="3.332" ry="4.736" fill="#48BF91"/>
        <ellipse cx="30.675" cy="40.352" rx=".399" ry=".798" fill="#fff"/>
        <ellipse cx="21.103" cy="40.352" rx=".399" ry=".798" fill="#fff"/>
    </g>
    <defs>
        <clipPath id="a">
            <path fill="#fff" d="M0 0h72v72H0z"/>
        </clipPath>
    </defs>
</svg>
