<svg width="133" height="62" viewBox="0 0 133 62" fill="none" xmlns="http://www.w3.org/2000/svg">
    <g filter="url(#a)">
        <mask id="b" fill="#fff">
            <path fill-rule="evenodd" clip-rule="evenodd" d="M21.618 9 18.5 3l-3.118 6H8a4 4 0 0 0-4 4v40a4 4 0 0 0 4 4h117a4 4 0 0 0 4-4V13a4 4 0 0 0-4-4H21.618z"/>
        </mask>
        <path fill-rule="evenodd" clip-rule="evenodd" d="M21.618 9 18.5 3l-3.118 6H8a4 4 0 0 0-4 4v40a4 4 0 0 0 4 4h117a4 4 0 0 0 4-4V13a4 4 0 0 0-4-4H21.618z" fill="#fff"/>
        <path d="m18.5 3 .887-.461L18.5.83l-.887 1.708L18.5 3zm3.118 6-.888.461.28.539h.608V9zm-6.236 0v1h.608l.28-.539L15.382 9zm2.23-5.539 3.118 6 1.775-.922-3.118-6-1.774.922zm-1.342 6 3.117-6-1.774-.922-3.118 6 1.775.922zM8 10h7.382V8H8v2zm-3 3a3 3 0 0 1 3-3V8a5 5 0 0 0-5 5h2zm0 40V13H3v40h2zm3 3a3 3 0 0 1-3-3H3a5 5 0 0 0 5 5v-2zm117 0H8v2h117v-2zm3-3a3 3 0 0 1-3 3v2a5 5 0 0 0 5-5h-2zm0-40v40h2V13h-2zm-3-3a3 3 0 0 1 3 3h2a5 5 0 0 0-5-5v2zM21.618 10H125V8H21.618v2z" fill="#48BF91" mask="url(#b)"/>
    </g>
    <defs>
        <filter id="a" x="0" y="0" width="133" height="62" filterUnits="userSpaceOnUse" color-interpolation-filters="sRGB">
            <feFlood flood-opacity="0" result="BackgroundImageFix"/>
            <feColorMatrix in="SourceAlpha" values="0 0 0 0 0 0 0 0 0 0 0 0 0 0 0 0 0 0 127 0" result="hardAlpha"/>
            <feOffset dy="1"/>
            <feGaussianBlur stdDeviation="2"/>
            <feComposite in2="hardAlpha" operator="out"/>
            <feColorMatrix values="0 0 0 0 0 0 0 0 0 0 0 0 0 0 0 0 0 0 0.15 0"/>
            <feBlend in2="BackgroundImageFix" result="effect1_dropShadow_1163_59170"/>
            <feBlend in="SourceGraphic" in2="effect1_dropShadow_1163_59170" result="shape"/>
        </filter>
    </defs>
</svg>
