<svg width="96" height="96" viewBox="0 0 96 96" fill="none" xmlns="http://www.w3.org/2000/svg">
    <g opacity=".7">
        <path d="M45.229 14.666c-1.212-4.525-5.438-7.43-9.937-7.147-3.047.191-4.244 3.162-3.679 5.274l2.761 10.303c.566 2.111 3.088 4.086 5.823 2.729 4.038-2.005 6.244-6.634 5.032-11.159z" fill="#fff" stroke="#D4D2CF" stroke-width="6"/>
        <path fill-rule="evenodd" clip-rule="evenodd" d="M67.704 24.097c4.489.237 8.512 3.317 9.738 7.894 1.525 5.69-1.852 11.539-7.542 13.064a10.63 10.63 0 0 1-7.84-.924 10.63 10.63 0 0 1-6.328 4.72 10.63 10.63 0 0 1-7.839-.923 10.63 10.63 0 0 1-6.328 4.719 10.63 10.63 0 0 1-7.839-.923 10.63 10.63 0 0 1-6.327 4.719c-5.69 1.525-11.54-1.852-13.064-7.543-1.226-4.576.718-9.256 4.487-11.706-1.026-5.43 2.297-10.817 7.723-12.271a10.63 10.63 0 0 1 7.84.923 10.63 10.63 0 0 1 6.328-4.719 10.63 10.63 0 0 1 7.838.923 10.63 10.63 0 0 1 6.328-4.72c5.427-1.454 10.998 1.55 12.825 6.767z" fill="#fff"/>
        <path d="m67.704 24.097-3.146 1.101.739 2.11 2.231.118.176-3.33zM69.9 45.055l.862 3.22-.862-3.22zm-7.84-.924 1.587-2.93-2.776-1.505-1.652 2.69 2.84 1.745zm-14.167 3.797 1.587-2.931-2.775-1.504-1.652 2.69 2.84 1.745zm-14.167 3.796 1.588-2.931-2.776-1.504-1.652 2.69 2.84 1.745zM14.335 48.9l3.22-.862-3.22.862zm4.487-11.706 1.817 2.795 1.873-1.217-.415-2.196-3.275.618zm7.723-12.271-.862-3.22.862 3.22zm7.84.923-1.587 2.931 2.776 1.504 1.652-2.69-2.84-1.745zm6.328-4.719-.863-3.22.863 3.22zm7.838.923-1.587 2.93 2.776 1.504 1.652-2.69-2.84-1.744zm32.11 9.078c-1.61-6.012-6.894-10.049-12.78-10.36l-.353 6.658a7.338 7.338 0 0 1 6.694 5.427l6.44-1.725zm-9.899 17.146c7.469-2 11.901-9.678 9.9-17.146l-6.44 1.725a7.333 7.333 0 0 1-5.185 8.982l1.725 6.44zm-10.29-1.212a13.963 13.963 0 0 0 10.29 1.212l-1.725-6.44a7.296 7.296 0 0 1-5.39-.634l-3.175 5.862zm-3.877 5.008a13.964 13.964 0 0 0 8.305-6.194l-5.68-3.49a7.297 7.297 0 0 1-4.35 3.245l1.725 6.44zm-10.29-1.211a13.964 13.964 0 0 0 10.29 1.211l-1.726-6.44a7.297 7.297 0 0 1-5.389-.634l-3.174 5.863zm-3.877 5.007a13.963 13.963 0 0 0 8.305-6.194l-5.68-3.489a7.297 7.297 0 0 1-4.35 3.244l1.725 6.44zm-10.29-1.211a13.964 13.964 0 0 0 10.29 1.211l-1.725-6.44a7.297 7.297 0 0 1-5.39-.633l-3.174 5.862zm-3.876 5.008a13.963 13.963 0 0 0 8.305-6.195l-5.681-3.489a7.297 7.297 0 0 1-4.35 3.244l1.726 6.44zm-17.147-9.9c2.001 7.469 9.678 11.9 17.147 9.9l-1.726-6.44a7.333 7.333 0 0 1-8.981-5.185l-6.44 1.725zm5.89-15.363c-4.943 3.213-7.5 9.351-5.89 15.363l6.44-1.725a7.338 7.338 0 0 1 3.084-8.048l-3.633-5.59zm5.093 2.176a7.334 7.334 0 0 1 5.31-8.434l-1.725-6.439c-7.124 1.909-11.483 8.978-10.136 16.11l6.55-1.237zm5.31-8.434a7.297 7.297 0 0 1 5.39.635l3.175-5.862a13.963 13.963 0 0 0-10.29-1.212l1.725 6.44zM39.85 17.907a13.964 13.964 0 0 0-8.305 6.195l5.68 3.489a7.297 7.297 0 0 1 4.35-3.244l-1.725-6.44zM50.14 19.12a13.964 13.964 0 0 0-10.289-1.212l1.726 6.44a7.297 7.297 0 0 1 5.388.634l3.175-5.863zm3.878-5.01c-3.6.966-6.5 3.255-8.306 6.196l5.68 3.489a7.297 7.297 0 0 1 4.351-3.245l-1.725-6.44zm16.833 8.886c-2.398-6.85-9.709-10.794-16.833-8.885l1.725 6.44a7.334 7.334 0 0 1 8.816 4.648l6.292-2.203z" fill="#D4D2CF"/>
        <path fill-rule="evenodd" clip-rule="evenodd" d="M24.287 70.217a10.65 10.65 0 0 1-6.277-7.118c-1.525-5.69 1.852-11.539 7.543-13.064a10.63 10.63 0 0 1 7.84.924 10.63 10.63 0 0 1 6.327-4.72 10.63 10.63 0 0 1 7.84.924 10.63 10.63 0 0 1 6.327-4.72 10.63 10.63 0 0 1 7.84.924 10.63 10.63 0 0 1 6.327-4.72c5.69-1.524 11.539 1.853 13.064 7.543a10.65 10.65 0 0 1-1.877 9.302c.32.639.581 1.32.773 2.037 1.312 4.894-1.003 9.905-5.297 12.182.175 4.857-3.007 9.368-7.902 10.68-.519.138-1.039.236-1.557.296a10.648 10.648 0 0 1-7.067 6.155 10.648 10.648 0 0 1-9.198-1.797c-.478.207-.977.382-1.496.521-4.894 1.312-9.905-1.003-12.182-5.296-4.857.176-9.368-3.007-10.68-7.902a10.714 10.714 0 0 1-.348-2.151z" fill="#F3F2EF"/>
        <path d="m24.287 70.217 3.328-.194-.122-2.097-1.945-.795-1.26 3.086zm9.105-19.258-1.587 2.93 2.776 1.504 1.652-2.69-2.84-1.744zm14.167-3.797-1.587 2.931 2.775 1.504 1.653-2.69-2.84-1.744zm14.167-3.795-1.587 2.93 2.775 1.504 1.653-2.69-2.84-1.744zM79.24 55.492l-2.634-2.042-1.287 1.66.943 1.878 2.978-1.496zm-4.523 14.219-1.561-2.945-1.846.978.076 2.087 3.33-.12zm-9.459 10.976-.38-3.312-1.932.222-.758 1.792 3.07 1.298zm-16.265 4.358 2.01-2.66-1.552-1.172-1.784.774 1.326 3.058zM35.315 80.27l2.945-1.562-.979-1.845-2.087.076.12 3.33zM14.79 63.962a13.983 13.983 0 0 0 8.236 9.34l2.52-6.171a7.317 7.317 0 0 1-4.317-4.894l-6.44 1.725zm9.899-17.146c-7.469 2-11.9 9.678-9.9 17.146l6.44-1.725a7.333 7.333 0 0 1 5.185-8.982l-1.725-6.44zm10.29 1.212a13.963 13.963 0 0 0-10.29-1.212l1.725 6.44a7.297 7.297 0 0 1 5.39.634l3.175-5.862zm3.877-5.008a13.963 13.963 0 0 0-8.305 6.194l5.68 3.49a7.296 7.296 0 0 1 4.35-3.245l-1.725-6.44zm10.29 1.211a13.963 13.963 0 0 0-10.29-1.211l1.726 6.44a7.297 7.297 0 0 1 5.389.633l3.175-5.862zm3.877-5.007a13.963 13.963 0 0 0-8.305 6.194l5.68 3.49a7.297 7.297 0 0 1 4.35-3.245l-1.725-6.44zm10.29 1.212a13.963 13.963 0 0 0-10.29-1.212l1.725 6.44a7.297 7.297 0 0 1 5.39.634l3.175-5.862zm3.877-5.008a13.963 13.963 0 0 0-8.305 6.194l5.68 3.49a7.296 7.296 0 0 1 4.35-3.245l-1.725-6.44zm17.146 9.9c-2-7.47-9.678-11.902-17.146-9.9l1.725 6.44a7.333 7.333 0 0 1 8.982 5.185l6.44-1.726zm-2.462 12.206a13.983 13.983 0 0 0 2.462-12.207l-6.44 1.726a7.317 7.317 0 0 1-1.291 6.397l5.269 4.084zm1.359-.868a14.044 14.044 0 0 0-1.015-2.67l-5.957 2.992c.22.437.4.906.532 1.403l6.44-1.725zm-6.956 15.99c5.636-2.988 8.678-9.562 6.956-15.99l-6.44 1.725c.9 3.36-.687 6.81-3.638 8.375l3.122 5.89zm-4.892-2.825a7.337 7.337 0 0 1-5.434 7.34l1.726 6.439c6.428-1.722 10.6-7.644 10.37-14.02l-6.662.241zm-5.434 7.34c-.36.096-.718.163-1.074.204l.76 6.623c.68-.078 1.362-.207 2.04-.388l-1.726-6.44zm-6.898 12.891a13.982 13.982 0 0 0 9.274-8.077l-6.14-2.596a7.315 7.315 0 0 1-4.86 4.234l1.726 6.439zm-12.07-2.358a13.982 13.982 0 0 0 12.07 2.358l-1.725-6.44a7.315 7.315 0 0 1-6.326-1.237l-4.02 5.32zm1.376 1.082c.677-.181 1.332-.41 1.96-.683l-2.653-6.116a7.416 7.416 0 0 1-1.033.36l1.726 6.439zm-15.99-6.954c2.989 5.635 9.562 8.676 15.99 6.954l-1.726-6.44c-3.36.9-6.81-.686-8.374-3.638l-5.89 3.124zM21.416 73.23c1.722 6.428 7.644 10.6 14.02 10.37l-.242-6.662a7.338 7.338 0 0 1-7.339-5.433l-6.44 1.725zm-.457-2.82c.055.938.205 1.882.457 2.82l6.44-1.725a7.377 7.377 0 0 1-.241-1.483l-6.655.388z" fill="#D4D2CF"/>
        <path d="M49.43 48.234c0 4.511-1.026 8.464-2.548 11.194-1.572 2.819-3.32 3.806-4.636 3.806-1.318 0-3.066-.987-4.637-3.806-1.523-2.73-2.548-6.682-2.548-11.194 0-4.51 1.026-8.463 2.548-11.193 1.572-2.819 3.32-3.806 4.636-3.806 1.318 0 3.065.987 4.637 3.806 1.523 2.73 2.548 6.683 2.548 11.194z" fill="#fff" stroke="#D4D2CF" stroke-width="5.333"/>
        <ellipse cx="45.236" cy="44.824" rx="5.846" ry="8.309" fill="#D4D2CF"/>
        <path d="M66.216 48.234c0 4.507-1.035 8.455-2.572 11.183-1.584 2.811-3.356 3.817-4.717 3.817-1.36 0-3.132-1.006-4.716-3.817-1.537-2.728-2.572-6.676-2.572-11.183 0-4.506 1.035-8.455 2.572-11.183 1.584-2.81 3.356-3.817 4.716-3.817 1.36 0 3.133 1.006 4.717 3.817 1.537 2.728 2.572 6.677 2.572 11.183z" fill="#fff" stroke="#D4D2CF" stroke-width="5.333"/>
        <ellipse cx="61.638" cy="44.824" rx="5.846" ry="8.309" fill="#D4D2CF"/>
        <ellipse cx="63.004" cy="42.112" rx=".7" ry="1.399" fill="#fff"/>
        <ellipse cx="46.213" cy="42.112" rx=".7" ry="1.399" fill="#fff"/>
    </g>
</svg>
